<mxfile host="app.diagrams.net" modified="2023-03-13T01:08:43.244Z" agent="5.0 (Macintosh; Intel Mac OS X 10_15_7) AppleWebKit/605.1.15 (KHTML, like Gecko) Version/16.3 Safari/605.1.15" etag="9h7m3zrHEqUq9X4mxyO-" version="21.0.2" type="github">
  <diagram name="Page-1" id="16e2658f-23c8-b752-8be9-c03fbebb8bbe">
    <mxGraphModel dx="1446" dy="742" grid="1" gridSize="10" guides="1" tooltips="1" connect="1" arrows="1" fold="1" page="1" pageScale="1" pageWidth="1100" pageHeight="850" background="none" math="0" shadow="0">
      <root>
        <mxCell id="0" />
        <mxCell id="1" parent="0" />
        <mxCell id="-GUhgpTzO3t0Vc2VAfkX-1" value="" style="pointerEvents=1;verticalLabelPosition=bottom;shadow=0;dashed=0;align=center;html=1;verticalAlign=top;shape=mxgraph.electrical.inductors.transformer_1;rotation=90;" parent="1" vertex="1">
          <mxGeometry x="750" y="220" width="84" height="80" as="geometry" />
        </mxCell>
        <mxCell id="-GUhgpTzO3t0Vc2VAfkX-2" value="" style="rounded=0;whiteSpace=wrap;html=1;" parent="1" vertex="1">
          <mxGeometry x="120" y="240" width="50" height="80" as="geometry" />
        </mxCell>
        <mxCell id="-GUhgpTzO3t0Vc2VAfkX-3" value="" style="endArrow=none;html=1;rounded=0;exitX=0;exitY=0;exitDx=0;exitDy=0;entryX=1;entryY=0;entryDx=0;entryDy=0;" parent="1" source="-GUhgpTzO3t0Vc2VAfkX-2" target="-GUhgpTzO3t0Vc2VAfkX-2" edge="1">
          <mxGeometry width="50" height="50" relative="1" as="geometry">
            <mxPoint x="460" y="310" as="sourcePoint" />
            <mxPoint x="240" y="300" as="targetPoint" />
            <Array as="points">
              <mxPoint x="145" y="270" />
            </Array>
          </mxGeometry>
        </mxCell>
        <mxCell id="-GUhgpTzO3t0Vc2VAfkX-16" value="" style="pointerEvents=1;verticalLabelPosition=bottom;shadow=0;dashed=0;align=center;html=1;verticalAlign=top;shape=mxgraph.electrical.electro-mechanical.make_contact;" parent="1" vertex="1">
          <mxGeometry x="850" y="202" width="75" height="16" as="geometry" />
        </mxCell>
        <mxCell id="-GUhgpTzO3t0Vc2VAfkX-17" value="" style="endArrow=none;html=1;rounded=0;entryX=0;entryY=1;entryDx=0;entryDy=0;entryPerimeter=0;exitX=0;exitY=0;exitDx=0;exitDy=0;exitPerimeter=0;" parent="1" source="-GUhgpTzO3t0Vc2VAfkX-1" target="-GUhgpTzO3t0Vc2VAfkX-16" edge="1">
          <mxGeometry width="50" height="50" relative="1" as="geometry">
            <mxPoint x="460" y="310" as="sourcePoint" />
            <mxPoint x="510" y="260" as="targetPoint" />
          </mxGeometry>
        </mxCell>
        <mxCell id="-GUhgpTzO3t0Vc2VAfkX-18" value="" style="pointerEvents=1;verticalLabelPosition=bottom;shadow=0;dashed=0;align=center;html=1;verticalAlign=top;shape=mxgraph.electrical.signal_sources.source;aspect=fixed;points=[[0.5,0,0],[1,0.5,0],[0.5,1,0],[0,0.5,0]];elSignalType=ac;" parent="1" vertex="1">
          <mxGeometry x="920" y="234" width="50" height="50" as="geometry" />
        </mxCell>
        <mxCell id="-GUhgpTzO3t0Vc2VAfkX-19" value="" style="endArrow=none;html=1;rounded=0;entryX=0.5;entryY=0;entryDx=0;entryDy=0;entryPerimeter=0;exitX=1;exitY=1;exitDx=0;exitDy=0;exitPerimeter=0;" parent="1" source="-GUhgpTzO3t0Vc2VAfkX-16" target="-GUhgpTzO3t0Vc2VAfkX-18" edge="1">
          <mxGeometry width="50" height="50" relative="1" as="geometry">
            <mxPoint x="700" y="310" as="sourcePoint" />
            <mxPoint x="750" y="260" as="targetPoint" />
            <Array as="points">
              <mxPoint x="945" y="218" />
            </Array>
          </mxGeometry>
        </mxCell>
        <mxCell id="-GUhgpTzO3t0Vc2VAfkX-20" value="" style="endArrow=none;html=1;rounded=0;entryX=0.5;entryY=1;entryDx=0;entryDy=0;entryPerimeter=0;exitX=1;exitY=0;exitDx=0;exitDy=0;exitPerimeter=0;" parent="1" source="-GUhgpTzO3t0Vc2VAfkX-1" target="-GUhgpTzO3t0Vc2VAfkX-18" edge="1">
          <mxGeometry width="50" height="50" relative="1" as="geometry">
            <mxPoint x="780" y="310" as="sourcePoint" />
            <mxPoint x="750" y="260" as="targetPoint" />
            <Array as="points">
              <mxPoint x="945" y="302" />
            </Array>
          </mxGeometry>
        </mxCell>
        <mxCell id="-GUhgpTzO3t0Vc2VAfkX-21" value="" style="pointerEvents=1;verticalLabelPosition=bottom;shadow=0;dashed=0;align=center;html=1;verticalAlign=top;shape=mxgraph.electrical.electro-mechanical.make_contact;rotation=-90;" parent="1" vertex="1">
          <mxGeometry x="309" y="160" width="75" height="16" as="geometry" />
        </mxCell>
        <mxCell id="-GUhgpTzO3t0Vc2VAfkX-22" value="" style="pointerEvents=1;verticalLabelPosition=bottom;shadow=0;dashed=0;align=center;html=1;verticalAlign=top;shape=mxgraph.electrical.electro-mechanical.make_contact;rotation=-90;" parent="1" vertex="1">
          <mxGeometry x="560" y="160" width="75" height="16" as="geometry" />
        </mxCell>
        <mxCell id="-GUhgpTzO3t0Vc2VAfkX-23" value="" style="pointerEvents=1;verticalLabelPosition=bottom;shadow=0;dashed=0;align=center;html=1;verticalAlign=top;shape=mxgraph.electrical.electro-mechanical.make_contact;rotation=-90;" parent="1" vertex="1">
          <mxGeometry x="310" y="370" width="75" height="16" as="geometry" />
        </mxCell>
        <mxCell id="-GUhgpTzO3t0Vc2VAfkX-24" value="" style="pointerEvents=1;verticalLabelPosition=bottom;shadow=0;dashed=0;align=center;html=1;verticalAlign=top;shape=mxgraph.electrical.electro-mechanical.make_contact;rotation=-90;" parent="1" vertex="1">
          <mxGeometry x="560" y="370" width="75" height="16" as="geometry" />
        </mxCell>
        <mxCell id="-GUhgpTzO3t0Vc2VAfkX-25" value="&lt;font style=&quot;font-size: 15px;&quot;&gt;T&lt;/font&gt;&lt;sub&gt;&lt;font style=&quot;font-size: 12px;&quot;&gt;1&lt;/font&gt;&lt;/sub&gt;" style="text;html=1;strokeColor=none;fillColor=none;align=center;verticalAlign=middle;whiteSpace=wrap;rounded=0;" parent="1" vertex="1">
          <mxGeometry x="300" y="160" width="60" height="30" as="geometry" />
        </mxCell>
        <mxCell id="-GUhgpTzO3t0Vc2VAfkX-27" value="&lt;font style=&quot;font-size: 15px;&quot;&gt;T&lt;/font&gt;&lt;sub&gt;&lt;font style=&quot;font-size: 11px;&quot;&gt;3&lt;/font&gt;&lt;/sub&gt;" style="text;html=1;strokeColor=none;fillColor=none;align=center;verticalAlign=middle;whiteSpace=wrap;rounded=0;" parent="1" vertex="1">
          <mxGeometry x="550" y="160" width="60" height="30" as="geometry" />
        </mxCell>
        <mxCell id="-GUhgpTzO3t0Vc2VAfkX-30" value="&lt;font style=&quot;font-size: 15px;&quot;&gt;T&lt;/font&gt;&lt;sub&gt;&lt;font style=&quot;font-size: 11px;&quot;&gt;4&lt;/font&gt;&lt;/sub&gt;" style="text;html=1;strokeColor=none;fillColor=none;align=center;verticalAlign=middle;whiteSpace=wrap;rounded=0;" parent="1" vertex="1">
          <mxGeometry x="550" y="370" width="60" height="30" as="geometry" />
        </mxCell>
        <mxCell id="-GUhgpTzO3t0Vc2VAfkX-31" value="&lt;font&gt;&lt;font style=&quot;font-size: 15px;&quot;&gt;T&lt;/font&gt;&lt;sub&gt;&lt;font style=&quot;font-size: 12px;&quot;&gt;2&lt;/font&gt;&lt;/sub&gt;&lt;/font&gt;" style="text;html=1;strokeColor=none;fillColor=none;align=center;verticalAlign=middle;whiteSpace=wrap;rounded=0;" parent="1" vertex="1">
          <mxGeometry x="300" y="370" width="60" height="30" as="geometry" />
        </mxCell>
        <mxCell id="-GUhgpTzO3t0Vc2VAfkX-33" value="A" style="verticalLabelPosition=middle;shadow=0;dashed=0;align=center;html=1;verticalAlign=middle;strokeWidth=1;shape=ellipse;aspect=fixed;fontSize=29;" parent="1" vertex="1">
          <mxGeometry x="200" y="400" width="36" height="36" as="geometry" />
        </mxCell>
        <mxCell id="-GUhgpTzO3t0Vc2VAfkX-36" value="&lt;font style=&quot;font-size: 36px;&quot;&gt;V&lt;/font&gt;" style="verticalLabelPosition=middle;shadow=0;dashed=0;align=center;html=1;verticalAlign=middle;strokeWidth=1;shape=ellipse;aspect=fixed;fontSize=50;" parent="1" vertex="1">
          <mxGeometry x="20" y="260" width="40" height="40" as="geometry" />
        </mxCell>
        <mxCell id="-GUhgpTzO3t0Vc2VAfkX-38" value="&lt;font style=&quot;font-size: 36px;&quot;&gt;V&lt;/font&gt;" style="verticalLabelPosition=middle;shadow=0;dashed=0;align=center;html=1;verticalAlign=middle;strokeWidth=1;shape=ellipse;aspect=fixed;fontSize=50;" parent="1" vertex="1">
          <mxGeometry x="1010" y="240" width="40" height="40" as="geometry" />
        </mxCell>
        <mxCell id="-GUhgpTzO3t0Vc2VAfkX-39" value="A" style="verticalLabelPosition=middle;shadow=0;dashed=0;align=center;html=1;verticalAlign=middle;strokeWidth=1;shape=ellipse;aspect=fixed;fontSize=29;" parent="1" vertex="1">
          <mxGeometry x="640" y="284" width="36" height="36" as="geometry" />
        </mxCell>
        <mxCell id="-GUhgpTzO3t0Vc2VAfkX-40" value="" style="endArrow=classic;html=1;rounded=0;entryX=1;entryY=0.5;entryDx=0;entryDy=0;exitX=0;exitY=1;exitDx=0;exitDy=0;exitPerimeter=0;" parent="1" source="-GUhgpTzO3t0Vc2VAfkX-24" target="-GUhgpTzO3t0Vc2VAfkX-33" edge="1">
          <mxGeometry width="50" height="50" relative="1" as="geometry">
            <mxPoint x="560" y="330" as="sourcePoint" />
            <mxPoint x="610" y="280" as="targetPoint" />
            <Array as="points">
              <mxPoint x="606" y="418" />
            </Array>
          </mxGeometry>
        </mxCell>
        <mxCell id="-GUhgpTzO3t0Vc2VAfkX-41" value="" style="endArrow=none;html=1;rounded=0;entryX=0;entryY=1;entryDx=0;entryDy=0;entryPerimeter=0;exitX=1;exitY=0.5;exitDx=0;exitDy=0;" parent="1" source="-GUhgpTzO3t0Vc2VAfkX-33" target="-GUhgpTzO3t0Vc2VAfkX-23" edge="1">
          <mxGeometry width="50" height="50" relative="1" as="geometry">
            <mxPoint x="560" y="370" as="sourcePoint" />
            <mxPoint x="610" y="320" as="targetPoint" />
            <Array as="points">
              <mxPoint x="356" y="418" />
            </Array>
          </mxGeometry>
        </mxCell>
        <mxCell id="-GUhgpTzO3t0Vc2VAfkX-42" value="" style="endArrow=none;html=1;rounded=0;entryX=0;entryY=0.5;entryDx=0;entryDy=0;exitX=0.5;exitY=1;exitDx=0;exitDy=0;" parent="1" source="-GUhgpTzO3t0Vc2VAfkX-2" target="-GUhgpTzO3t0Vc2VAfkX-33" edge="1">
          <mxGeometry width="50" height="50" relative="1" as="geometry">
            <mxPoint x="560" y="370" as="sourcePoint" />
            <mxPoint x="610" y="320" as="targetPoint" />
            <Array as="points">
              <mxPoint x="145" y="418" />
            </Array>
          </mxGeometry>
        </mxCell>
        <mxCell id="-GUhgpTzO3t0Vc2VAfkX-43" value="" style="endArrow=classic;html=1;rounded=0;entryX=1;entryY=0.5;entryDx=0;entryDy=0;exitX=1;exitY=1;exitDx=0;exitDy=0;exitPerimeter=0;" parent="1" source="-GUhgpTzO3t0Vc2VAfkX-1" target="-GUhgpTzO3t0Vc2VAfkX-39" edge="1">
          <mxGeometry width="50" height="50" relative="1" as="geometry">
            <mxPoint x="560" y="370" as="sourcePoint" />
            <mxPoint x="610" y="320" as="targetPoint" />
          </mxGeometry>
        </mxCell>
        <mxCell id="WNYke4QZm4oAdo9Tye4i-4" value="" style="verticalLabelPosition=bottom;shadow=0;dashed=0;align=center;html=1;verticalAlign=top;shape=mxgraph.electrical.logic_gates.rs_latch;" vertex="1" parent="1">
          <mxGeometry x="580" y="540" width="100" height="80" as="geometry" />
        </mxCell>
        <mxCell id="WNYke4QZm4oAdo9Tye4i-5" value="" style="pointerEvents=1;verticalLabelPosition=bottom;shadow=0;dashed=0;align=center;html=1;verticalAlign=top;shape=mxgraph.electrical.inductors.inductor;fillColor=#ffe6cc;strokeColor=#d79b00;strokeWidth=3;" vertex="1" parent="1">
          <mxGeometry x="630" y="176" width="100" height="42" as="geometry" />
        </mxCell>
        <mxCell id="WNYke4QZm4oAdo9Tye4i-6" value="" style="endArrow=none;html=1;rounded=0;entryX=1;entryY=1;entryDx=0;entryDy=0;entryPerimeter=0;exitX=0;exitY=1;exitDx=0;exitDy=0;exitPerimeter=0;" edge="1" parent="1" source="-GUhgpTzO3t0Vc2VAfkX-1" target="WNYke4QZm4oAdo9Tye4i-5">
          <mxGeometry width="50" height="50" relative="1" as="geometry">
            <mxPoint x="530" y="370" as="sourcePoint" />
            <mxPoint x="580" y="320" as="targetPoint" />
          </mxGeometry>
        </mxCell>
        <mxCell id="WNYke4QZm4oAdo9Tye4i-8" value="" style="shape=waypoint;sketch=0;fillStyle=solid;size=6;pointerEvents=1;points=[];fillColor=none;resizable=0;rotatable=0;perimeter=centerPerimeter;snapToPoint=1;strokeWidth=2;" vertex="1" parent="1">
          <mxGeometry x="345" y="208" width="20" height="20" as="geometry" />
        </mxCell>
        <mxCell id="WNYke4QZm4oAdo9Tye4i-9" value="" style="endArrow=none;html=1;rounded=0;entryX=0;entryY=1;entryDx=0;entryDy=0;entryPerimeter=0;exitX=0.4;exitY=0.75;exitDx=0;exitDy=0;exitPerimeter=0;" edge="1" parent="1" source="WNYke4QZm4oAdo9Tye4i-8" target="WNYke4QZm4oAdo9Tye4i-5">
          <mxGeometry width="50" height="50" relative="1" as="geometry">
            <mxPoint x="530" y="370" as="sourcePoint" />
            <mxPoint x="580" y="320" as="targetPoint" />
          </mxGeometry>
        </mxCell>
        <mxCell id="WNYke4QZm4oAdo9Tye4i-10" value="" style="endArrow=none;html=1;rounded=0;entryX=0.65;entryY=0.85;entryDx=0;entryDy=0;entryPerimeter=0;exitX=0;exitY=1;exitDx=0;exitDy=0;exitPerimeter=0;" edge="1" parent="1" source="-GUhgpTzO3t0Vc2VAfkX-21" target="WNYke4QZm4oAdo9Tye4i-8">
          <mxGeometry width="50" height="50" relative="1" as="geometry">
            <mxPoint x="530" y="370" as="sourcePoint" />
            <mxPoint x="580" y="320" as="targetPoint" />
          </mxGeometry>
        </mxCell>
        <mxCell id="WNYke4QZm4oAdo9Tye4i-11" value="" style="endArrow=none;html=1;rounded=0;exitX=1;exitY=1;exitDx=0;exitDy=0;exitPerimeter=0;" edge="1" parent="1" source="-GUhgpTzO3t0Vc2VAfkX-23">
          <mxGeometry width="50" height="50" relative="1" as="geometry">
            <mxPoint x="530" y="370" as="sourcePoint" />
            <mxPoint x="355" y="218" as="targetPoint" />
          </mxGeometry>
        </mxCell>
        <mxCell id="WNYke4QZm4oAdo9Tye4i-12" value="" style="shape=waypoint;sketch=0;fillStyle=solid;size=6;pointerEvents=1;points=[];fillColor=none;resizable=0;rotatable=0;perimeter=centerPerimeter;snapToPoint=1;strokeWidth=2;" vertex="1" parent="1">
          <mxGeometry x="595" y="292" width="20" height="20" as="geometry" />
        </mxCell>
        <mxCell id="WNYke4QZm4oAdo9Tye4i-14" value="" style="endArrow=none;html=1;rounded=0;entryX=0;entryY=0.5;entryDx=0;entryDy=0;exitX=0.5;exitY=0.65;exitDx=0;exitDy=0;exitPerimeter=0;" edge="1" parent="1" source="WNYke4QZm4oAdo9Tye4i-12" target="-GUhgpTzO3t0Vc2VAfkX-39">
          <mxGeometry width="50" height="50" relative="1" as="geometry">
            <mxPoint x="530" y="370" as="sourcePoint" />
            <mxPoint x="580" y="320" as="targetPoint" />
          </mxGeometry>
        </mxCell>
        <mxCell id="WNYke4QZm4oAdo9Tye4i-15" value="" style="endArrow=none;html=1;rounded=0;entryX=1;entryY=1;entryDx=0;entryDy=0;entryPerimeter=0;exitX=0.45;exitY=0.35;exitDx=0;exitDy=0;exitPerimeter=0;" edge="1" parent="1" source="WNYke4QZm4oAdo9Tye4i-12" target="-GUhgpTzO3t0Vc2VAfkX-24">
          <mxGeometry width="50" height="50" relative="1" as="geometry">
            <mxPoint x="530" y="370" as="sourcePoint" />
            <mxPoint x="580" y="320" as="targetPoint" />
          </mxGeometry>
        </mxCell>
        <mxCell id="WNYke4QZm4oAdo9Tye4i-16" value="" style="endArrow=none;html=1;rounded=0;entryX=0;entryY=1;entryDx=0;entryDy=0;entryPerimeter=0;exitX=0.45;exitY=0.3;exitDx=0;exitDy=0;exitPerimeter=0;" edge="1" parent="1" source="WNYke4QZm4oAdo9Tye4i-12" target="-GUhgpTzO3t0Vc2VAfkX-22">
          <mxGeometry width="50" height="50" relative="1" as="geometry">
            <mxPoint x="530" y="370" as="sourcePoint" />
            <mxPoint x="580" y="320" as="targetPoint" />
          </mxGeometry>
        </mxCell>
        <mxCell id="WNYke4QZm4oAdo9Tye4i-18" value="" style="endArrow=none;html=1;rounded=0;entryX=0.5;entryY=1;entryDx=0;entryDy=0;exitX=1;exitY=0;exitDx=0;exitDy=0;exitPerimeter=0;" edge="1" parent="1" source="-GUhgpTzO3t0Vc2VAfkX-1" target="-GUhgpTzO3t0Vc2VAfkX-38">
          <mxGeometry width="50" height="50" relative="1" as="geometry">
            <mxPoint x="530" y="370" as="sourcePoint" />
            <mxPoint x="580" y="320" as="targetPoint" />
            <Array as="points">
              <mxPoint x="1030" y="302" />
            </Array>
          </mxGeometry>
        </mxCell>
        <mxCell id="WNYke4QZm4oAdo9Tye4i-19" value="" style="endArrow=none;html=1;rounded=0;entryX=1;entryY=1;entryDx=0;entryDy=0;entryPerimeter=0;exitX=0.5;exitY=0;exitDx=0;exitDy=0;" edge="1" parent="1" source="-GUhgpTzO3t0Vc2VAfkX-38" target="-GUhgpTzO3t0Vc2VAfkX-16">
          <mxGeometry width="50" height="50" relative="1" as="geometry">
            <mxPoint x="530" y="370" as="sourcePoint" />
            <mxPoint x="580" y="320" as="targetPoint" />
            <Array as="points">
              <mxPoint x="1030" y="218" />
            </Array>
          </mxGeometry>
        </mxCell>
        <mxCell id="WNYke4QZm4oAdo9Tye4i-20" value="" style="endArrow=none;html=1;rounded=0;entryX=0.5;entryY=1;entryDx=0;entryDy=0;exitX=0.5;exitY=1;exitDx=0;exitDy=0;" edge="1" parent="1" source="-GUhgpTzO3t0Vc2VAfkX-2" target="-GUhgpTzO3t0Vc2VAfkX-36">
          <mxGeometry width="50" height="50" relative="1" as="geometry">
            <mxPoint x="530" y="370" as="sourcePoint" />
            <mxPoint x="580" y="320" as="targetPoint" />
            <Array as="points">
              <mxPoint x="145" y="360" />
              <mxPoint x="40" y="360" />
            </Array>
          </mxGeometry>
        </mxCell>
        <mxCell id="WNYke4QZm4oAdo9Tye4i-22" value="" style="endArrow=none;html=1;rounded=0;entryX=1;entryY=1;entryDx=0;entryDy=0;entryPerimeter=0;exitX=0.5;exitY=0;exitDx=0;exitDy=0;" edge="1" parent="1" source="-GUhgpTzO3t0Vc2VAfkX-2" target="-GUhgpTzO3t0Vc2VAfkX-22">
          <mxGeometry width="50" height="50" relative="1" as="geometry">
            <mxPoint x="530" y="370" as="sourcePoint" />
            <mxPoint x="580" y="320" as="targetPoint" />
            <Array as="points">
              <mxPoint x="145" y="110" />
              <mxPoint x="606" y="110" />
            </Array>
          </mxGeometry>
        </mxCell>
        <mxCell id="WNYke4QZm4oAdo9Tye4i-23" value="" style="endArrow=none;html=1;rounded=0;entryX=1;entryY=1;entryDx=0;entryDy=0;entryPerimeter=0;exitX=0.5;exitY=0;exitDx=0;exitDy=0;" edge="1" parent="1" source="-GUhgpTzO3t0Vc2VAfkX-2" target="-GUhgpTzO3t0Vc2VAfkX-21">
          <mxGeometry width="50" height="50" relative="1" as="geometry">
            <mxPoint x="530" y="370" as="sourcePoint" />
            <mxPoint x="580" y="320" as="targetPoint" />
            <Array as="points">
              <mxPoint x="145" y="110" />
              <mxPoint x="355" y="110" />
            </Array>
          </mxGeometry>
        </mxCell>
        <mxCell id="WNYke4QZm4oAdo9Tye4i-24" value="" style="endArrow=none;html=1;rounded=0;entryX=0.5;entryY=0;entryDx=0;entryDy=0;exitX=0.5;exitY=0;exitDx=0;exitDy=0;" edge="1" parent="1" source="-GUhgpTzO3t0Vc2VAfkX-36" target="-GUhgpTzO3t0Vc2VAfkX-2">
          <mxGeometry width="50" height="50" relative="1" as="geometry">
            <mxPoint x="530" y="370" as="sourcePoint" />
            <mxPoint x="580" y="320" as="targetPoint" />
            <Array as="points">
              <mxPoint x="40" y="200" />
              <mxPoint x="145" y="200" />
            </Array>
          </mxGeometry>
        </mxCell>
        <mxCell id="WNYke4QZm4oAdo9Tye4i-25" value="" style="endArrow=classic;html=1;rounded=0;" edge="1" parent="1">
          <mxGeometry width="50" height="50" relative="1" as="geometry">
            <mxPoint x="100" y="260" as="sourcePoint" />
            <mxPoint x="100" y="300" as="targetPoint" />
          </mxGeometry>
        </mxCell>
        <mxCell id="WNYke4QZm4oAdo9Tye4i-27" value="" style="endArrow=classic;html=1;rounded=0;" edge="1" parent="1">
          <mxGeometry width="50" height="50" relative="1" as="geometry">
            <mxPoint x="990" y="239" as="sourcePoint" />
            <mxPoint x="990" y="279" as="targetPoint" />
          </mxGeometry>
        </mxCell>
        <mxCell id="WNYke4QZm4oAdo9Tye4i-28" value="1/20" style="triangle;whiteSpace=wrap;html=1;align=center;labelPosition=center;verticalLabelPosition=middle;verticalAlign=middle;" vertex="1" parent="1">
          <mxGeometry x="220" y="490" width="40" height="60" as="geometry" />
        </mxCell>
        <mxCell id="WNYke4QZm4oAdo9Tye4i-29" value="&lt;font style=&quot;font-size: 25px;&quot;&gt;&amp;gt;&lt;/font&gt;" style="whiteSpace=wrap;html=1;aspect=fixed;" vertex="1" parent="1">
          <mxGeometry x="460" y="530" width="40" height="40" as="geometry" />
        </mxCell>
        <mxCell id="WNYke4QZm4oAdo9Tye4i-30" value="&lt;font style=&quot;font-size: 25px;&quot;&gt;&amp;gt;&lt;/font&gt;" style="whiteSpace=wrap;html=1;aspect=fixed;" vertex="1" parent="1">
          <mxGeometry x="460" y="590" width="40" height="40" as="geometry" />
        </mxCell>
        <mxCell id="WNYke4QZm4oAdo9Tye4i-31" value="&lt;font style=&quot;font-size: 16px;&quot;&gt;-1&lt;/font&gt;" style="triangle;whiteSpace=wrap;html=1;" vertex="1" parent="1">
          <mxGeometry x="390" y="598" width="36" height="43" as="geometry" />
        </mxCell>
        <mxCell id="WNYke4QZm4oAdo9Tye4i-32" value="&lt;font&gt;&lt;span style=&quot;font-size: 15px;&quot;&gt;T&lt;/span&gt;&lt;sub&gt;&lt;font style=&quot;font-size: 12px;&quot;&gt;1&amp;nbsp;&lt;/font&gt;&lt;/sub&gt;&lt;span style=&quot;font-size: 15px;&quot;&gt;&amp;amp; T&lt;sub style=&quot;font-size: 12px;&quot;&gt;4&lt;/sub&gt;&lt;/span&gt;&lt;/font&gt;&lt;font style=&quot;vertical-align: sub; font-size: 12px;&quot;&gt;&amp;nbsp;&lt;/font&gt;" style="text;html=1;strokeColor=none;fillColor=none;align=center;verticalAlign=middle;whiteSpace=wrap;rounded=0;" vertex="1" parent="1">
          <mxGeometry x="740" y="545" width="60" height="30" as="geometry" />
        </mxCell>
        <mxCell id="WNYke4QZm4oAdo9Tye4i-33" value="&lt;font&gt;&lt;span style=&quot;font-size: 15px;&quot;&gt;T&lt;sub style=&quot;font-size: 12px;&quot;&gt;2&lt;/sub&gt;&lt;/span&gt;&lt;sub&gt;&lt;font style=&quot;font-size: 12px;&quot;&gt;&amp;nbsp;&lt;/font&gt;&lt;/sub&gt;&lt;span style=&quot;font-size: 15px;&quot;&gt;&amp;amp; T&lt;sub style=&quot;font-size: 12px;&quot;&gt;3&lt;/sub&gt;&lt;/span&gt;&lt;/font&gt;&lt;font style=&quot;vertical-align: sub; font-size: 12px;&quot;&gt;&amp;nbsp;&lt;/font&gt;" style="text;html=1;strokeColor=none;fillColor=none;align=center;verticalAlign=middle;whiteSpace=wrap;rounded=0;" vertex="1" parent="1">
          <mxGeometry x="740" y="585" width="60" height="30" as="geometry" />
        </mxCell>
        <mxCell id="WNYke4QZm4oAdo9Tye4i-34" value="" style="endArrow=classic;html=1;rounded=0;entryX=0;entryY=0.5;entryDx=0;entryDy=0;exitX=1;exitY=0.25;exitDx=0;exitDy=0;exitPerimeter=0;" edge="1" parent="1" source="WNYke4QZm4oAdo9Tye4i-4" target="WNYke4QZm4oAdo9Tye4i-32">
          <mxGeometry width="50" height="50" relative="1" as="geometry">
            <mxPoint x="490" y="370" as="sourcePoint" />
            <mxPoint x="540" y="320" as="targetPoint" />
          </mxGeometry>
        </mxCell>
        <mxCell id="WNYke4QZm4oAdo9Tye4i-35" value="" style="endArrow=classic;html=1;rounded=0;entryX=0;entryY=0.5;entryDx=0;entryDy=0;exitX=1;exitY=0.75;exitDx=0;exitDy=0;exitPerimeter=0;" edge="1" parent="1" source="WNYke4QZm4oAdo9Tye4i-4" target="WNYke4QZm4oAdo9Tye4i-33">
          <mxGeometry width="50" height="50" relative="1" as="geometry">
            <mxPoint x="490" y="370" as="sourcePoint" />
            <mxPoint x="540" y="320" as="targetPoint" />
          </mxGeometry>
        </mxCell>
        <mxCell id="WNYke4QZm4oAdo9Tye4i-38" value="" style="endArrow=classic;html=1;rounded=0;entryX=0;entryY=0.75;entryDx=0;entryDy=0;entryPerimeter=0;exitX=1;exitY=0.5;exitDx=0;exitDy=0;" edge="1" parent="1" source="WNYke4QZm4oAdo9Tye4i-30" target="WNYke4QZm4oAdo9Tye4i-4">
          <mxGeometry width="50" height="50" relative="1" as="geometry">
            <mxPoint x="490" y="370" as="sourcePoint" />
            <mxPoint x="540" y="320" as="targetPoint" />
            <Array as="points">
              <mxPoint x="540" y="610" />
              <mxPoint x="540" y="600" />
            </Array>
          </mxGeometry>
        </mxCell>
        <mxCell id="WNYke4QZm4oAdo9Tye4i-39" value="" style="endArrow=classic;html=1;rounded=0;entryX=0;entryY=0.25;entryDx=0;entryDy=0;entryPerimeter=0;exitX=1;exitY=0.5;exitDx=0;exitDy=0;" edge="1" parent="1" source="WNYke4QZm4oAdo9Tye4i-29" target="WNYke4QZm4oAdo9Tye4i-4">
          <mxGeometry width="50" height="50" relative="1" as="geometry">
            <mxPoint x="490" y="370" as="sourcePoint" />
            <mxPoint x="540" y="320" as="targetPoint" />
            <Array as="points">
              <mxPoint x="540" y="550" />
              <mxPoint x="540" y="560" />
            </Array>
          </mxGeometry>
        </mxCell>
        <mxCell id="WNYke4QZm4oAdo9Tye4i-40" value="" style="endArrow=classic;html=1;rounded=0;entryX=0;entryY=0.75;entryDx=0;entryDy=0;exitX=1;exitY=0.5;exitDx=0;exitDy=0;" edge="1" parent="1" source="WNYke4QZm4oAdo9Tye4i-31" target="WNYke4QZm4oAdo9Tye4i-30">
          <mxGeometry width="50" height="50" relative="1" as="geometry">
            <mxPoint x="490" y="370" as="sourcePoint" />
            <mxPoint x="540" y="320" as="targetPoint" />
          </mxGeometry>
        </mxCell>
        <mxCell id="WNYke4QZm4oAdo9Tye4i-42" value="&lt;font style=&quot;font-size: 28px;&quot;&gt;+&lt;/font&gt;" style="ellipse;whiteSpace=wrap;html=1;aspect=fixed;" vertex="1" parent="1">
          <mxGeometry x="240" y="600" width="25" height="25" as="geometry" />
        </mxCell>
      </root>
    </mxGraphModel>
  </diagram>
</mxfile>
